<svg xmlns="http://www.w3.org/2000/svg" xmlns:xlink="http://www.w3.org/1999/xlink" width="500" zoomAndPan="magnify" viewBox="0 0 375 374.999991" height="500" preserveAspectRatio="xMidYMid meet" version="1.0"><defs><g/><clipPath id="6991c0a239"><path d="M 147 83 L 230.34375 83 L 230.34375 231.960938 L 147 231.960938 Z M 147 83 " clip-rule="nonzero"/></clipPath></defs><g fill="#492800" fill-opacity="1"><g transform="translate(92.862043, 267.212663)"><g><path d="M 16.34375 -15.046875 C 13.714844 -14.976562 8.675781 -14.722656 10.152344 -10.585938 C 10.945312 -8.316406 13.714844 -8.316406 14.941406 -9.613281 C 15.121094 -9.613281 15.300781 -9.613281 15.445312 -9.613281 C 15.515625 -9.613281 15.589844 -9.613281 15.625 -9.613281 C 15.589844 -9.359375 15.589844 -9.144531 15.515625 -9 C 15.335938 -8.53125 15.046875 -8.0625 14.6875 -7.703125 C 12.925781 -5.902344 8.675781 -6.910156 7.597656 -9.144531 C 5.328125 -13.859375 10.835938 -23.113281 16.488281 -21.167969 C 19.765625 -20.015625 21.203125 -25.199219 17.929688 -26.351562 C 4.894531 -30.925781 -5.6875 -6.085938 8.605469 -2.050781 C 11.554688 -1.222656 14.761719 -1.078125 17.316406 -2.878906 C 19.65625 -4.535156 21.097656 -7.378906 21.238281 -10.1875 C 21.347656 -13.535156 19.546875 -15.085938 16.34375 -15.046875 Z M 16.34375 -15.046875 "/></g></g></g><g fill="#492800" fill-opacity="1"><g transform="translate(114.102089, 267.212663)"><g><path d="M 18.613281 -15.769531 C 18.503906 -18.898438 18.433594 -27.109375 13.105469 -24.839844 C 9.648438 -23.363281 7.019531 -18.863281 5.542969 -15.625 C 3.601562 -11.230469 2.664062 -6.589844 1.835938 -1.90625 C 1.222656 1.511719 6.40625 2.953125 7.019531 -0.46875 C 7.34375 -2.269531 7.667969 -4.105469 8.0625 -5.902344 L 13.464844 -5.6875 C 13.535156 -4.246094 13.570312 -2.808594 13.609375 -1.402344 C 13.679688 2.089844 19.078125 2.089844 18.972656 -1.402344 C 18.863281 -6.191406 18.792969 -10.980469 18.613281 -15.769531 Z M 9.792969 -11.84375 C 10.402344 -13.429688 11.195312 -15.011719 12.132812 -16.414062 C 12.457031 -16.921875 12.816406 -17.386719 13.175781 -17.820312 C 13.210938 -17.101562 13.175781 -16.378906 13.210938 -15.769531 C 13.285156 -14.21875 13.320312 -12.671875 13.355469 -11.089844 C 12.097656 -11.125 10.835938 -11.195312 9.574219 -11.230469 C 9.648438 -11.449219 9.71875 -11.628906 9.792969 -11.84375 Z M 9.792969 -11.84375 "/></g></g></g><g fill="#492800" fill-opacity="1"><g transform="translate(133.110124, 267.212663)"><g><path d="M 26.855469 -12.851562 C 26.820312 -15.984375 26.425781 -19.800781 23.902344 -21.996094 C 21.132812 -24.445312 18.433594 -23.148438 16.34375 -20.664062 C 16.273438 -20.808594 16.164062 -20.953125 16.09375 -21.058594 C 14.148438 -24.046875 10.042969 -23.867188 7.667969 -21.527344 C 5.113281 -19.042969 3.816406 -14.902344 3.058594 -11.519531 C 2.269531 -7.8125 2.015625 -3.996094 1.800781 -0.253906 C 1.585938 3.238281 6.984375 3.203125 7.199219 -0.253906 C 7.453125 -4.789062 7.738281 -9.394531 9.289062 -13.679688 C 9.648438 -14.652344 10.042969 -15.589844 10.585938 -16.453125 C 10.765625 -16.738281 11.230469 -17.710938 11.664062 -17.820312 C 11.664062 -17.855469 11.699219 -17.855469 11.699219 -17.855469 C 11.699219 -17.820312 11.699219 -17.746094 11.773438 -17.675781 C 12.203125 -17.101562 12.058594 -15.40625 12.097656 -14.722656 C 12.132812 -13.429688 12.058594 -12.132812 11.914062 -10.800781 C 11.628906 -7.8125 16.738281 -7.09375 17.242188 -10.117188 C 17.53125 -12.023438 18.144531 -13.824219 19.1875 -15.480469 C 19.546875 -16.019531 20.339844 -16.667969 20.808594 -17.242188 C 20.878906 -16.667969 21.167969 -16.09375 21.238281 -15.550781 C 22.105469 -10.765625 21.167969 -5.472656 20.699219 -0.71875 C 20.339844 2.734375 25.738281 2.734375 26.101562 -0.71875 C 26.496094 -4.714844 26.929688 -8.785156 26.855469 -12.851562 Z M 26.855469 -12.851562 "/></g></g></g><g fill="#492800" fill-opacity="1"><g transform="translate(160.002179, 267.212663)"><g><path d="M 15.011719 -7.632812 C 12.527344 -7.738281 10.042969 -7.632812 7.597656 -7.414062 C 7.777344 -8.785156 7.992188 -10.152344 8.171875 -11.519531 C 9.394531 -11.519531 10.621094 -11.484375 11.84375 -11.339844 C 13.320312 -11.195312 14.542969 -12.671875 14.542969 -14.039062 C 14.542969 -15.625 13.320312 -16.597656 11.84375 -16.738281 C 10.90625 -16.847656 9.972656 -16.882812 9 -16.921875 C 9.214844 -18.289062 9.46875 -19.691406 9.683594 -21.097656 C 11.519531 -21.097656 13.320312 -21.023438 15.15625 -20.914062 C 18.613281 -20.664062 18.613281 -26.0625 15.15625 -26.316406 C 12.5625 -26.496094 9.9375 -26.53125 7.34375 -26.425781 C 6.335938 -26.425781 5.617188 -25.921875 5.183594 -25.234375 C 5.003906 -24.949219 4.859375 -24.589844 4.789062 -24.191406 C 3.601562 -17.566406 2.628906 -10.945312 1.800781 -4.320312 C 1.546875 -2.375 3.707031 -1.476562 5.21875 -1.691406 C 8.460938 -2.230469 11.734375 -2.375 15.011719 -2.230469 C 18.46875 -2.089844 18.46875 -7.488281 15.011719 -7.632812 Z M 15.011719 -7.632812 "/></g></g></g><g fill="#492800" fill-opacity="1"><g transform="translate(177.750219, 267.212663)"><g/></g></g><g fill="#492800" fill-opacity="1"><g transform="translate(186.894237, 267.212663)"><g><path d="M 26.566406 -19.765625 C 26.171875 -23.148438 20.773438 -23.183594 21.203125 -19.765625 C 21.671875 -15.769531 21.492188 -11.808594 20.375 -7.921875 C 20.015625 -6.730469 19.476562 -4.175781 18.070312 -3.816406 C 16.308594 -3.347656 16.273438 -6.660156 16.199219 -7.703125 C 15.949219 -11.160156 10.621094 -11.195312 10.835938 -7.703125 C 10.871094 -6.839844 10.546875 -4.246094 9.109375 -4.753906 C 7.992188 -5.113281 7.738281 -8.0625 7.558594 -9.035156 C 6.949219 -12.707031 7.054688 -16.488281 7.738281 -20.160156 C 8.351562 -23.578125 3.167969 -25.019531 2.519531 -21.601562 C 1.871094 -18.035156 1.585938 -14.4375 1.945312 -10.800781 C 2.230469 -7.738281 2.59375 -4.066406 4.609375 -1.585938 C 7.164062 1.476562 10.476562 1.222656 12.925781 -0.648438 C 13.285156 -0.214844 13.714844 0.179688 14.21875 0.539062 C 16.8125 2.375 20.160156 1.835938 22.390625 -0.324219 C 24.660156 -2.484375 25.558594 -5.902344 26.136719 -8.855469 C 26.855469 -12.457031 27.035156 -16.09375 26.566406 -19.765625 Z M 26.566406 -19.765625 "/></g></g></g><g fill="#492800" fill-opacity="1"><g transform="translate(213.750302, 267.212663)"><g><path d="M 20.449219 -3.421875 C 18.46875 -6.121094 16.199219 -8.53125 13.609375 -10.621094 C 15.550781 -11.988281 17.171875 -13.894531 17.855469 -15.949219 C 19.222656 -20.050781 15.550781 -24.085938 11.375 -23.902344 C 6.949219 -23.6875 4.03125 -19.585938 3.238281 -15.589844 C 2.195312 -10.402344 2.195312 -4.894531 1.800781 0.359375 C 1.511719 3.816406 6.910156 3.816406 7.199219 0.359375 C 7.414062 -2.484375 7.632812 -5.328125 7.882812 -8.171875 C 10.945312 -6.15625 13.609375 -3.671875 15.804688 -0.683594 C 17.820312 2.089844 22.535156 -0.613281 20.449219 -3.421875 Z M 12.742188 -17.820312 C 12.886719 -17.242188 11.269531 -15.804688 10.835938 -15.40625 C 10.078125 -14.722656 9.359375 -14.21875 8.425781 -14.113281 C 8.53125 -14.722656 8.675781 -15.335938 8.929688 -15.910156 C 9.179688 -16.597656 12.238281 -20.269531 12.742188 -17.820312 Z M 12.742188 -17.820312 "/></g></g></g><g fill="#492800" fill-opacity="1"><g transform="translate(234.738353, 267.212663)"><g><path d="M 3.421875 -22.175781 C 2.699219 -15.695312 2.160156 -9.179688 1.800781 -2.664062 C 1.585938 0.828125 6.984375 0.792969 7.199219 -2.664062 C 7.558594 -9.179688 8.101562 -15.695312 8.820312 -22.175781 C 9.179688 -25.632812 3.78125 -25.632812 3.421875 -22.175781 Z M 3.421875 -22.175781 "/></g></g></g><g fill="#492800" fill-opacity="1"><g transform="translate(243.594375, 267.212663)"><g><path d="M 16.378906 -24.769531 C 12.382812 -25.273438 8.386719 -25.34375 4.355469 -24.949219 C 0.9375 -24.589844 0.898438 -19.1875 4.355469 -19.546875 C 5.4375 -19.65625 6.480469 -19.726562 7.523438 -19.765625 C 7.199219 -14.507812 6.910156 -9.214844 6.589844 -3.960938 C 6.371094 -0.503906 11.773438 -0.503906 11.988281 -3.960938 C 12.3125 -9.214844 12.601562 -14.4375 12.925781 -19.691406 C 14.074219 -19.621094 15.226562 -19.511719 16.378906 -19.367188 C 19.835938 -18.9375 19.800781 -24.335938 16.378906 -24.769531 Z M 16.378906 -24.769531 "/></g></g></g><g fill="#492800" fill-opacity="1"><g transform="translate(262.566423, 267.212663)"><g><path d="M 15.011719 -7.632812 C 12.527344 -7.738281 10.042969 -7.632812 7.597656 -7.414062 C 7.777344 -8.785156 7.992188 -10.152344 8.171875 -11.519531 C 9.394531 -11.519531 10.621094 -11.484375 11.84375 -11.339844 C 13.320312 -11.195312 14.542969 -12.671875 14.542969 -14.039062 C 14.542969 -15.625 13.320312 -16.597656 11.84375 -16.738281 C 10.90625 -16.847656 9.972656 -16.882812 9 -16.921875 C 9.214844 -18.289062 9.46875 -19.691406 9.683594 -21.097656 C 11.519531 -21.097656 13.320312 -21.023438 15.15625 -20.914062 C 18.613281 -20.664062 18.613281 -26.0625 15.15625 -26.316406 C 12.5625 -26.496094 9.9375 -26.53125 7.34375 -26.425781 C 6.335938 -26.425781 5.617188 -25.921875 5.183594 -25.234375 C 5.003906 -24.949219 4.859375 -24.589844 4.789062 -24.191406 C 3.601562 -17.566406 2.628906 -10.945312 1.800781 -4.320312 C 1.546875 -2.375 3.707031 -1.476562 5.21875 -1.691406 C 8.460938 -2.230469 11.734375 -2.375 15.011719 -2.230469 C 18.46875 -2.089844 18.46875 -7.488281 15.011719 -7.632812 Z M 15.011719 -7.632812 "/></g></g></g><g fill="#492800" fill-opacity="1"><g transform="translate(280.315156, 267.212663)"><g/></g></g><g fill="#492800" fill-opacity="1"><g transform="translate(144.98392, 288.990449)"><g><path d="M 1.375 0 C 1.28125 0 1.195312 -0.03125 1.125 -0.09375 C 1.0625 -0.164062 1.03125 -0.25 1.03125 -0.34375 L 1.03125 -9.453125 C 1.03125 -9.554688 1.0625 -9.640625 1.125 -9.703125 C 1.195312 -9.765625 1.28125 -9.796875 1.375 -9.796875 L 5.203125 -9.796875 C 5.960938 -9.796875 6.617188 -9.675781 7.171875 -9.4375 C 7.734375 -9.207031 8.171875 -8.859375 8.484375 -8.390625 C 8.796875 -7.921875 8.953125 -7.332031 8.953125 -6.625 C 8.953125 -5.925781 8.796875 -5.34375 8.484375 -4.875 C 8.171875 -4.414062 7.734375 -4.070312 7.171875 -3.84375 C 6.617188 -3.625 5.960938 -3.515625 5.203125 -3.515625 L 3.328125 -3.515625 L 3.328125 -0.34375 C 3.328125 -0.25 3.296875 -0.164062 3.234375 -0.09375 C 3.171875 -0.03125 3.085938 0 2.984375 0 Z M 3.296875 -5.25 L 5.140625 -5.25 C 5.617188 -5.25 5.988281 -5.363281 6.25 -5.59375 C 6.507812 -5.832031 6.640625 -6.179688 6.640625 -6.640625 C 6.640625 -7.054688 6.519531 -7.394531 6.28125 -7.65625 C 6.039062 -7.914062 5.660156 -8.046875 5.140625 -8.046875 L 3.296875 -8.046875 Z M 3.296875 -5.25 "/></g></g></g><g fill="#492800" fill-opacity="1"><g transform="translate(159.930708, 288.990449)"><g><path d="M 1.375 0 C 1.28125 0 1.195312 -0.03125 1.125 -0.09375 C 1.0625 -0.164062 1.03125 -0.25 1.03125 -0.34375 L 1.03125 -9.453125 C 1.03125 -9.554688 1.0625 -9.640625 1.125 -9.703125 C 1.195312 -9.765625 1.28125 -9.796875 1.375 -9.796875 L 2.90625 -9.796875 C 3.007812 -9.796875 3.09375 -9.765625 3.15625 -9.703125 C 3.226562 -9.640625 3.265625 -9.554688 3.265625 -9.453125 L 3.265625 -5.953125 L 7.0625 -5.953125 L 7.0625 -9.453125 C 7.0625 -9.554688 7.09375 -9.640625 7.15625 -9.703125 C 7.21875 -9.765625 7.296875 -9.796875 7.390625 -9.796875 L 8.9375 -9.796875 C 9.039062 -9.796875 9.125 -9.765625 9.1875 -9.703125 C 9.25 -9.640625 9.28125 -9.554688 9.28125 -9.453125 L 9.28125 -0.34375 C 9.28125 -0.25 9.25 -0.164062 9.1875 -0.09375 C 9.125 -0.03125 9.039062 0 8.9375 0 L 7.390625 0 C 7.296875 0 7.21875 -0.03125 7.15625 -0.09375 C 7.09375 -0.164062 7.0625 -0.25 7.0625 -0.34375 L 7.0625 -3.96875 L 3.265625 -3.96875 L 3.265625 -0.34375 C 3.265625 -0.25 3.226562 -0.164062 3.15625 -0.09375 C 3.09375 -0.03125 3.007812 0 2.90625 0 Z M 1.375 0 "/></g></g></g><g fill="#492800" fill-opacity="1"><g transform="translate(175.842966, 288.990449)"><g><path d="M 1.375 0 C 1.28125 0 1.195312 -0.03125 1.125 -0.09375 C 1.0625 -0.164062 1.03125 -0.25 1.03125 -0.34375 L 1.03125 -9.453125 C 1.03125 -9.554688 1.0625 -9.640625 1.125 -9.703125 C 1.195312 -9.765625 1.28125 -9.796875 1.375 -9.796875 L 5.09375 -9.796875 C 6.257812 -9.796875 7.175781 -9.523438 7.84375 -8.984375 C 8.519531 -8.453125 8.859375 -7.679688 8.859375 -6.671875 C 8.859375 -5.992188 8.691406 -5.425781 8.359375 -4.96875 C 8.035156 -4.507812 7.601562 -4.171875 7.0625 -3.953125 L 9.046875 -0.453125 C 9.078125 -0.390625 9.09375 -0.335938 9.09375 -0.296875 C 9.09375 -0.222656 9.0625 -0.15625 9 -0.09375 C 8.9375 -0.03125 8.867188 0 8.796875 0 L 7.21875 0 C 7.050781 0 6.925781 -0.0390625 6.84375 -0.125 C 6.757812 -0.21875 6.695312 -0.300781 6.65625 -0.375 L 4.953125 -3.578125 L 3.265625 -3.578125 L 3.265625 -0.34375 C 3.265625 -0.25 3.226562 -0.164062 3.15625 -0.09375 C 3.09375 -0.03125 3.007812 0 2.90625 0 Z M 3.265625 -5.359375 L 5.0625 -5.359375 C 5.570312 -5.359375 5.945312 -5.472656 6.1875 -5.703125 C 6.4375 -5.941406 6.5625 -6.269531 6.5625 -6.6875 C 6.5625 -7.113281 6.441406 -7.445312 6.203125 -7.6875 C 5.960938 -7.925781 5.582031 -8.046875 5.0625 -8.046875 L 3.265625 -8.046875 Z M 3.265625 -5.359375 "/></g></g></g><g fill="#492800" fill-opacity="1"><g transform="translate(190.985653, 288.990449)"><g><path d="M 0.46875 0 C 0.382812 0 0.3125 -0.03125 0.25 -0.09375 C 0.195312 -0.15625 0.171875 -0.222656 0.171875 -0.296875 C 0.171875 -0.335938 0.175781 -0.378906 0.1875 -0.421875 L 3.515625 -9.421875 C 3.546875 -9.523438 3.601562 -9.613281 3.6875 -9.6875 C 3.769531 -9.757812 3.882812 -9.796875 4.03125 -9.796875 L 5.828125 -9.796875 C 5.972656 -9.796875 6.085938 -9.757812 6.171875 -9.6875 C 6.253906 -9.613281 6.316406 -9.523438 6.359375 -9.421875 L 9.671875 -0.421875 C 9.691406 -0.378906 9.703125 -0.335938 9.703125 -0.296875 C 9.703125 -0.222656 9.671875 -0.15625 9.609375 -0.09375 C 9.546875 -0.03125 9.472656 0 9.390625 0 L 7.921875 0 C 7.796875 0 7.695312 -0.03125 7.625 -0.09375 C 7.5625 -0.164062 7.519531 -0.226562 7.5 -0.28125 L 6.90625 -1.84375 L 2.953125 -1.84375 L 2.359375 -0.28125 C 2.335938 -0.226562 2.296875 -0.164062 2.234375 -0.09375 C 2.171875 -0.03125 2.070312 0 1.9375 0 Z M 3.484375 -3.65625 L 6.375 -3.65625 L 4.921875 -7.671875 Z M 3.484375 -3.65625 "/></g></g></g><g fill="#492800" fill-opacity="1"><g transform="translate(206.436165, 288.990449)"><g><path d="M 4.5625 0.140625 C 3.664062 0.140625 2.914062 0.0078125 2.3125 -0.25 C 1.707031 -0.507812 1.25 -0.847656 0.9375 -1.265625 C 0.632812 -1.691406 0.476562 -2.144531 0.46875 -2.625 C 0.46875 -2.707031 0.492188 -2.773438 0.546875 -2.828125 C 0.597656 -2.878906 0.664062 -2.90625 0.75 -2.90625 L 2.265625 -2.90625 C 2.390625 -2.90625 2.484375 -2.878906 2.546875 -2.828125 C 2.609375 -2.785156 2.671875 -2.726562 2.734375 -2.65625 C 2.796875 -2.488281 2.898438 -2.328125 3.046875 -2.171875 C 3.191406 -2.023438 3.382812 -1.90625 3.625 -1.8125 C 3.875 -1.726562 4.1875 -1.6875 4.5625 -1.6875 C 5.164062 -1.6875 5.617188 -1.78125 5.921875 -1.96875 C 6.234375 -2.164062 6.390625 -2.429688 6.390625 -2.765625 C 6.390625 -3.003906 6.304688 -3.195312 6.140625 -3.34375 C 5.972656 -3.488281 5.710938 -3.625 5.359375 -3.75 C 5.015625 -3.875 4.550781 -4 3.96875 -4.125 C 3.269531 -4.289062 2.675781 -4.488281 2.1875 -4.71875 C 1.695312 -4.957031 1.328125 -5.265625 1.078125 -5.640625 C 0.835938 -6.023438 0.71875 -6.5 0.71875 -7.0625 C 0.71875 -7.613281 0.867188 -8.109375 1.171875 -8.546875 C 1.484375 -8.984375 1.914062 -9.320312 2.46875 -9.5625 C 3.03125 -9.8125 3.703125 -9.9375 4.484375 -9.9375 C 5.109375 -9.9375 5.660156 -9.851562 6.140625 -9.6875 C 6.617188 -9.519531 7.019531 -9.300781 7.34375 -9.03125 C 7.664062 -8.757812 7.910156 -8.46875 8.078125 -8.15625 C 8.242188 -7.851562 8.332031 -7.554688 8.34375 -7.265625 C 8.34375 -7.179688 8.316406 -7.109375 8.265625 -7.046875 C 8.210938 -6.984375 8.140625 -6.953125 8.046875 -6.953125 L 6.484375 -6.953125 C 6.390625 -6.953125 6.304688 -6.96875 6.234375 -7 C 6.160156 -7.039062 6.09375 -7.109375 6.03125 -7.203125 C 5.988281 -7.460938 5.828125 -7.679688 5.546875 -7.859375 C 5.273438 -8.035156 4.921875 -8.125 4.484375 -8.125 C 4.023438 -8.125 3.660156 -8.039062 3.390625 -7.875 C 3.128906 -7.707031 3 -7.453125 3 -7.109375 C 3 -6.890625 3.066406 -6.703125 3.203125 -6.546875 C 3.347656 -6.390625 3.578125 -6.253906 3.890625 -6.140625 C 4.210938 -6.023438 4.644531 -5.898438 5.1875 -5.765625 C 5.988281 -5.597656 6.644531 -5.394531 7.15625 -5.15625 C 7.675781 -4.914062 8.054688 -4.613281 8.296875 -4.25 C 8.546875 -3.882812 8.671875 -3.421875 8.671875 -2.859375 C 8.671875 -2.234375 8.492188 -1.695312 8.140625 -1.25 C 7.796875 -0.800781 7.316406 -0.457031 6.703125 -0.21875 C 6.085938 0.0195312 5.375 0.140625 4.5625 0.140625 Z M 4.5625 0.140625 "/></g></g></g><g fill="#492800" fill-opacity="1"><g transform="translate(221.159086, 288.990449)"><g><path d="M 1.375 0 C 1.28125 0 1.195312 -0.03125 1.125 -0.09375 C 1.0625 -0.164062 1.03125 -0.25 1.03125 -0.34375 L 1.03125 -9.453125 C 1.03125 -9.554688 1.0625 -9.640625 1.125 -9.703125 C 1.195312 -9.765625 1.28125 -9.796875 1.375 -9.796875 L 7.734375 -9.796875 C 7.828125 -9.796875 7.90625 -9.765625 7.96875 -9.703125 C 8.039062 -9.640625 8.078125 -9.554688 8.078125 -9.453125 L 8.078125 -8.328125 C 8.078125 -8.222656 8.039062 -8.140625 7.96875 -8.078125 C 7.90625 -8.015625 7.828125 -7.984375 7.734375 -7.984375 L 3.1875 -7.984375 L 3.1875 -5.796875 L 7.421875 -5.796875 C 7.523438 -5.796875 7.609375 -5.757812 7.671875 -5.6875 C 7.734375 -5.625 7.765625 -5.546875 7.765625 -5.453125 L 7.765625 -4.40625 C 7.765625 -4.3125 7.734375 -4.226562 7.671875 -4.15625 C 7.609375 -4.09375 7.523438 -4.0625 7.421875 -4.0625 L 3.1875 -4.0625 L 3.1875 -1.8125 L 7.84375 -1.8125 C 7.945312 -1.8125 8.03125 -1.78125 8.09375 -1.71875 C 8.15625 -1.65625 8.1875 -1.570312 8.1875 -1.46875 L 8.1875 -0.34375 C 8.1875 -0.25 8.15625 -0.164062 8.09375 -0.09375 C 8.03125 -0.03125 7.945312 0 7.84375 0 Z M 1.375 0 "/></g></g></g><path fill="#f2d500" d="M 186.644531 186.261719 C 185.289062 186.800781 184.648438 190.28125 184.640625 192.480469 C 184.636719 192.796875 184.53125 193.074219 184.324219 193.308594 C 184.117188 193.546875 183.855469 193.691406 183.542969 193.734375 C 183.230469 193.78125 182.941406 193.722656 182.675781 193.554688 C 182.40625 193.386719 182.226562 193.152344 182.132812 192.851562 C 182.109375 192.777344 179.804688 185.480469 175.210938 186.457031 C 170.347656 187.488281 172.015625 196.644531 172.015625 196.738281 C 172.058594 196.902344 172.066406 197.066406 172.042969 197.234375 C 172.019531 197.402344 171.964844 197.5625 171.878906 197.707031 C 171.792969 197.851562 171.683594 197.976562 171.546875 198.078125 C 171.410156 198.179688 171.261719 198.253906 171.097656 198.296875 C 170.929688 198.335938 170.765625 198.347656 170.597656 198.324219 C 170.429688 198.300781 170.269531 198.246094 170.125 198.160156 C 169.980469 198.074219 169.855469 197.960938 169.753906 197.828125 C 169.648438 197.691406 169.578125 197.542969 169.535156 197.378906 C 169.511719 197.320312 167.4375 191.316406 163.558594 192.027344 C 162.808594 192.125 162.238281 192.5 161.851562 193.148438 C 160.664062 195.136719 161.542969 199.105469 161.96875 200.464844 C 162.0625 200.773438 162.046875 201.070312 161.914062 201.367188 C 162.886719 203.144531 163.980469 204.84375 165.195312 206.46875 C 176.597656 221.769531 188.976562 227.070312 193.671875 228.617188 C 189.871094 210.109375 190.683594 194.351562 190.878906 191.285156 C 190.894531 191.070312 190.910156 190.855469 190.929688 190.644531 C 191 189.984375 191.019531 189.324219 190.988281 188.664062 C 189.117188 186.777344 187.539062 185.90625 186.644531 186.261719 Z M 186.644531 186.261719 " fill-opacity="1" fill-rule="nonzero"/><path fill="#ffd580" d="M 153.761719 101.257812 C 159.503906 98.523438 171.667969 94.792969 188.546875 100.574219 C 189.03125 100.746094 189.492188 100.964844 189.929688 101.234375 C 190.84375 97.398438 190.046875 94.035156 187.582031 91.441406 C 183.039062 86.65625 173.367188 84.96875 164.574219 87.433594 C 154.210938 90.339844 153.414062 98.105469 153.574219 101.351562 Z M 153.761719 101.257812 " fill-opacity="1" fill-rule="nonzero"/><path fill="#bcbec0" d="M 189.785156 115.753906 C 190.09375 112.585938 190.40625 109.875 190.671875 107.726562 C 190.734375 107.222656 190.707031 106.722656 190.597656 106.226562 C 190.488281 105.730469 190.296875 105.269531 190.027344 104.839844 C 189.761719 104.410156 189.425781 104.035156 189.03125 103.71875 C 188.632812 103.402344 188.195312 103.160156 187.714844 102.996094 C 171.707031 97.503906 160.257812 100.996094 154.863281 103.566406 C 153.933594 104.007812 153.171875 104.648438 152.578125 105.488281 C 151.984375 106.328125 151.636719 107.261719 151.535156 108.285156 C 151.273438 110.832031 151.058594 113.34375 150.890625 115.824219 C 154.507812 113.722656 158.34375 112.164062 162.40625 111.148438 C 169.386719 109.417969 179.636719 108.917969 189.785156 115.753906 Z M 189.785156 115.753906 " fill-opacity="1" fill-rule="nonzero"/><path fill="#fff200" d="M 188.027344 146.644531 C 188.046875 146.527344 188.082031 146.414062 188.136719 146.308594 C 188.230469 135.730469 188.839844 126.1875 189.507812 118.6875 C 181.675781 112.921875 172.765625 111.21875 163.023438 113.628906 C 158.621094 114.730469 154.515625 116.507812 150.699219 118.957031 C 148.898438 151.46875 154.394531 178.085938 158.09375 191.785156 C 158.316406 192.609375 158.5625 193.425781 158.832031 194.234375 C 158.957031 193.386719 159.234375 192.585938 159.664062 191.839844 C 160.035156 191.21875 160.523438 190.703125 161.125 190.292969 C 161.726562 189.886719 162.386719 189.625 163.105469 189.511719 C 165.78125 189.019531 167.800781 190.269531 169.230469 191.847656 C 169.480469 188.550781 170.683594 184.804688 174.679688 183.957031 C 178.503906 183.144531 181.097656 185.628906 182.671875 188.0625 C 183.160156 186.300781 184.054688 184.542969 185.691406 183.886719 C 187.089844 183.324219 188.664062 183.640625 190.445312 184.851562 C 188.636719 172.058594 188.0625 159.117188 188.128906 147.382812 C 188.019531 147.148438 187.984375 146.898438 188.027344 146.644531 Z M 188.027344 146.644531 " fill-opacity="1" fill-rule="nonzero"/><path fill="#ffffff" d="M 208.996094 118.652344 L 208.90625 118.652344 C 197.039062 118.207031 191.546875 131 191.507812 131.128906 C 191.425781 131.316406 191.304688 131.476562 191.148438 131.605469 C 190.917969 136 190.75 140.742188 190.695312 145.722656 C 192.324219 145.808594 193.589844 145.464844 194.46875 144.695312 C 195.707031 143.617188 195.9375 141.910156 195.984375 141.183594 C 195.320312 140.730469 194.679688 140.246094 194.066406 139.726562 C 193.9375 139.617188 193.832031 139.488281 193.753906 139.335938 C 193.675781 139.1875 193.628906 139.027344 193.617188 138.855469 C 193.601562 138.6875 193.621094 138.523438 193.671875 138.359375 C 193.722656 138.199219 193.804688 138.054688 193.914062 137.921875 C 194.023438 137.792969 194.152344 137.691406 194.304688 137.613281 C 194.453125 137.535156 194.613281 137.488281 194.785156 137.472656 C 194.953125 137.460938 195.121094 137.476562 195.28125 137.53125 C 195.445312 137.582031 195.589844 137.660156 195.71875 137.769531 C 198.539062 140.136719 200.871094 141.070312 202.472656 140.476562 C 204.070312 139.878906 204.855469 137.828125 205.160156 136.613281 C 204.53125 136.21875 203.925781 135.796875 203.339844 135.339844 C 203.203125 135.238281 203.089844 135.109375 203.003906 134.964844 C 202.917969 134.816406 202.863281 134.65625 202.84375 134.488281 C 202.820312 134.316406 202.832031 134.152344 202.875 133.984375 C 202.921875 133.820312 202.996094 133.671875 203.101562 133.535156 C 203.207031 133.402344 203.332031 133.292969 203.484375 133.207031 C 203.632812 133.125 203.792969 133.070312 203.960938 133.050781 C 204.132812 133.03125 204.300781 133.046875 204.464844 133.09375 C 204.628906 133.140625 204.777344 133.214844 204.910156 133.324219 C 207.753906 135.527344 210.121094 136.335938 211.949219 135.71875 C 213.566406 135.179688 214.507812 133.585938 214.960938 132.554688 C 212.347656 131.074219 209.828125 129.449219 207.402344 127.675781 C 207.269531 127.578125 207.15625 127.453125 207.066406 127.308594 C 206.980469 127.164062 206.925781 127.007812 206.898438 126.839844 C 206.875 126.671875 206.882812 126.503906 206.925781 126.339844 C 206.964844 126.175781 207.035156 126.027344 207.136719 125.890625 C 207.238281 125.753906 207.363281 125.640625 207.507812 125.554688 C 207.652344 125.46875 207.808594 125.410156 207.976562 125.386719 C 208.144531 125.359375 208.3125 125.367188 208.476562 125.410156 C 208.640625 125.453125 208.792969 125.523438 208.929688 125.625 C 211.539062 127.535156 214.269531 129.261719 217.113281 130.808594 L 217.128906 130.808594 C 220.480469 132.605469 223.699219 133.871094 225.375 133.4375 C 225.746094 133.371094 226.003906 133.164062 226.148438 132.820312 C 226.742188 131.519531 226.308594 129.464844 224.988281 127.320312 C 222.640625 123.53125 217.050781 118.988281 208.996094 118.652344 Z M 208.996094 118.652344 " fill-opacity="1" fill-rule="nonzero"/><path fill="#ffffff" d="M 209.804688 110.429688 C 195.8125 109.078125 192.148438 119.820312 192 120.277344 C 191.980469 120.332031 191.957031 120.386719 191.929688 120.4375 C 191.78125 122.179688 191.636719 124.023438 191.503906 125.957031 C 192.21875 124.910156 192.996094 123.910156 193.84375 122.964844 C 198.089844 118.257812 203.332031 115.882812 209.011719 116.09375 L 209.101562 116.09375 C 211.972656 116.195312 214.726562 116.804688 217.367188 117.921875 C 220.007812 119.042969 222.355469 120.597656 224.417969 122.589844 C 225.804688 122.21875 227.519531 121.46875 227.449219 120.019531 C 227.28125 116.867188 220.15625 111.433594 209.804688 110.429688 Z M 209.804688 110.429688 " fill-opacity="1" fill-rule="nonzero"/><path fill="#eab659" d="M 182.582031 88.117188 C 182.582031 88.144531 186.699219 97.605469 174.214844 97.613281 C 179.125 97.957031 183.90625 98.941406 188.554688 100.566406 C 189.039062 100.734375 189.5 100.957031 189.933594 101.226562 C 190.847656 97.390625 190.050781 94.027344 187.585938 91.429688 C 186.152344 89.980469 184.484375 88.875 182.582031 88.117188 Z M 182.582031 88.117188 " fill-opacity="1" fill-rule="nonzero"/><path fill="#ffeac5" d="M 174.820312 86.753906 C 174.636719 85.828125 172.5 85.457031 170.046875 85.933594 C 169.15625 86.101562 168.304688 86.378906 167.492188 86.773438 C 166.515625 86.945312 165.546875 87.164062 164.585938 87.433594 C 154.222656 90.339844 153.425781 98.105469 153.585938 101.351562 L 153.761719 101.261719 C 155.054688 100.648438 156.378906 100.113281 157.734375 99.65625 C 157.207031 93.519531 161.765625 90.09375 165.9375 88.25 C 165.921875 88.332031 165.921875 88.410156 165.9375 88.488281 C 166.117188 89.417969 168.253906 89.785156 170.710938 89.304688 C 173.164062 88.828125 175.003906 87.683594 174.820312 86.753906 Z M 174.820312 86.753906 " fill-opacity="1" fill-rule="nonzero"/><path fill="#ffeac5" d="M 166.816406 91.023438 C 166.847656 91.191406 166.832031 91.363281 166.769531 91.535156 C 166.710938 91.707031 166.605469 91.871094 166.457031 92.023438 C 166.308594 92.171875 166.132812 92.304688 165.921875 92.410156 C 165.710938 92.519531 165.484375 92.59375 165.242188 92.644531 C 165.003906 92.691406 164.765625 92.703125 164.527344 92.683594 C 164.292969 92.664062 164.078125 92.609375 163.882812 92.523438 C 163.691406 92.4375 163.53125 92.328125 163.410156 92.191406 C 163.285156 92.054688 163.210938 91.902344 163.175781 91.734375 C 163.144531 91.566406 163.15625 91.398438 163.21875 91.226562 C 163.28125 91.050781 163.386719 90.890625 163.535156 90.738281 C 163.679688 90.585938 163.859375 90.457031 164.070312 90.347656 C 164.28125 90.242188 164.507812 90.164062 164.746094 90.117188 C 164.988281 90.070312 165.226562 90.054688 165.460938 90.078125 C 165.699219 90.097656 165.914062 90.152344 166.105469 90.234375 C 166.300781 90.320312 166.457031 90.429688 166.582031 90.566406 C 166.703125 90.703125 166.78125 90.855469 166.816406 91.023438 Z M 166.816406 91.023438 " fill-opacity="1" fill-rule="nonzero"/><path fill="#939598" d="M 181.578125 101.257812 C 182.410156 104.730469 182.269531 108.160156 181.148438 111.550781 L 190.304688 116.601562 L 191.328125 104.535156 L 188.136719 101.785156 Z M 181.578125 101.257812 " fill-opacity="1" fill-rule="nonzero"/><path fill="#939598" d="M 190.03125 113.316406 C 169.824219 100.054688 152.414062 112.347656 151.078125 113.335938 C 151.007812 114.160156 150.945312 114.984375 150.890625 115.8125 C 154.507812 113.714844 158.347656 112.160156 162.40625 111.148438 C 169.386719 109.417969 179.636719 108.917969 189.785156 115.753906 C 189.867188 114.90625 189.949219 114.101562 190.03125 113.316406 Z M 190.03125 113.316406 " fill-opacity="1" fill-rule="nonzero"/><path fill="#f1f2f2" d="M 181.5625 101.257812 C 168.757812 98.421875 159.550781 101.339844 154.863281 103.566406 C 153.933594 104.007812 153.171875 104.648438 152.578125 105.488281 C 151.984375 106.328125 151.636719 107.261719 151.535156 108.285156 C 151.398438 109.644531 151.269531 110.996094 151.15625 112.339844 C 151.671875 109.078125 155.375 99.066406 181.5625 101.257812 Z M 181.5625 101.257812 " fill-opacity="1" fill-rule="nonzero"/><path fill="#f2d500" d="M 188.136719 147.382812 C 188.023438 147.148438 187.988281 146.898438 188.035156 146.644531 C 188.054688 146.527344 188.089844 146.414062 188.140625 146.308594 C 188.238281 135.730469 188.847656 126.1875 189.515625 118.6875 C 187.039062 116.84375 184.355469 115.390625 181.457031 114.324219 C 181.410156 114.53125 181.351562 114.78125 181.289062 115.078125 C 179.824219 121.929688 174.496094 151.84375 182.671875 188.0625 C 183.160156 186.300781 184.054688 184.542969 185.691406 183.886719 C 187.089844 183.324219 188.664062 183.640625 190.445312 184.851562 C 188.636719 172.058594 188.0625 159.117188 188.136719 147.382812 Z M 188.136719 147.382812 " fill-opacity="1" fill-rule="nonzero"/><path fill="#fffac0" d="M 164.296875 176.039062 C 163.535156 172.304688 160.976562 169.667969 158.582031 170.164062 C 158.515625 170.164062 158.453125 170.191406 158.394531 170.207031 C 153.273438 141.566406 156.078125 116.039062 156.078125 116.039062 C 154.207031 116.871094 152.414062 117.84375 150.695312 118.957031 C 148.898438 151.46875 154.394531 178.085938 158.09375 191.785156 C 158.316406 192.609375 158.5625 193.425781 158.832031 194.234375 C 158.957031 193.386719 159.234375 192.585938 159.664062 191.839844 C 160.035156 191.21875 160.523438 190.703125 161.125 190.292969 C 161.726562 189.886719 162.386719 189.625 163.105469 189.511719 C 162.484375 187.570312 161.914062 185.621094 161.390625 183.664062 C 163.746094 183.128906 165.046875 179.738281 164.296875 176.039062 Z M 164.296875 176.039062 " fill-opacity="1" fill-rule="nonzero"/><path fill="#fffac0" d="M 164.023438 166.609375 C 164.039062 167.003906 164.007812 167.386719 163.925781 167.753906 C 163.84375 168.125 163.71875 168.453125 163.550781 168.738281 C 163.382812 169.023438 163.1875 169.25 162.960938 169.410156 C 162.730469 169.570312 162.492188 169.65625 162.238281 169.667969 C 161.984375 169.675781 161.738281 169.609375 161.496094 169.46875 C 161.253906 169.328125 161.039062 169.121094 160.847656 168.851562 C 160.660156 168.578125 160.507812 168.261719 160.394531 167.902344 C 160.28125 167.542969 160.21875 167.164062 160.203125 166.769531 C 160.183594 166.375 160.21875 165.992188 160.300781 165.625 C 160.382812 165.253906 160.507812 164.925781 160.675781 164.640625 C 160.839844 164.355469 161.039062 164.132812 161.265625 163.96875 C 161.496094 163.808594 161.734375 163.722656 161.988281 163.714844 C 162.242188 163.703125 162.488281 163.769531 162.730469 163.910156 C 162.96875 164.050781 163.1875 164.257812 163.375 164.527344 C 163.566406 164.800781 163.71875 165.117188 163.832031 165.476562 C 163.945312 165.839844 164.007812 166.214844 164.023438 166.609375 Z M 164.023438 166.609375 " fill-opacity="1" fill-rule="nonzero"/><path fill="#d3b400" d="M 190.898438 191.285156 C 190.914062 191.070312 190.929688 190.855469 190.949219 190.644531 C 191.019531 189.984375 191.039062 189.324219 191.007812 188.664062 C 189.117188 186.777344 187.539062 185.90625 186.644531 186.261719 C 185.289062 186.800781 184.648438 190.28125 184.640625 192.480469 C 184.636719 192.796875 184.535156 193.074219 184.328125 193.316406 C 184.117188 193.554688 183.859375 193.695312 183.542969 193.742188 C 183.542969 193.742188 185.242188 216.425781 193.671875 228.617188 C 189.875 210.109375 190.6875 194.351562 190.898438 191.285156 Z M 190.898438 191.285156 " fill-opacity="1" fill-rule="nonzero"/><path fill="#fff200" d="M 161.980469 200.464844 C 162.074219 200.773438 162.058594 201.070312 161.925781 201.367188 C 162.894531 203.144531 163.984375 204.84375 165.195312 206.46875 C 176.597656 221.769531 188.976562 227.070312 193.671875 228.617188 C 173.148438 217.765625 161.863281 193.148438 161.863281 193.148438 C 160.675781 195.152344 161.542969 199.105469 161.980469 200.464844 Z M 161.980469 200.464844 " fill-opacity="1" fill-rule="nonzero"/><path fill="#ffd580" d="M 181.960938 224.265625 C 181.960938 224.265625 185.550781 216.648438 192.050781 219.035156 C 198.554688 221.421875 192.082031 218.285156 192.082031 218.285156 L 194.796875 223.476562 L 195.441406 228.691406 C 195.441406 228.691406 193.339844 229.871094 192.785156 229.679688 C 192.234375 229.488281 181.960938 224.265625 181.960938 224.265625 Z M 181.960938 224.265625 " fill-opacity="1" fill-rule="nonzero"/><path fill="#d1d3d4" d="M 195.730469 137.769531 C 198.546875 140.132812 200.882812 141.070312 202.480469 140.472656 C 204.082031 139.875 204.863281 137.824219 205.167969 136.609375 C 204.539062 136.21875 203.933594 135.792969 203.347656 135.335938 C 203.238281 135.25 203.144531 135.144531 203.066406 135.027344 C 197.824219 133.152344 194.386719 126.386719 194.601562 126.085938 C 193.371094 127.640625 192.34375 129.320312 191.515625 131.117188 C 191.433594 131.304688 191.316406 131.464844 191.160156 131.59375 C 190.925781 135.988281 190.757812 140.730469 190.703125 145.707031 C 192.332031 145.796875 193.597656 145.453125 194.476562 144.683594 C 195.714844 143.605469 195.945312 141.898438 195.996094 141.171875 C 195.332031 140.71875 194.691406 140.230469 194.078125 139.714844 C 193.945312 139.605469 193.84375 139.472656 193.765625 139.324219 C 193.683594 139.171875 193.640625 139.011719 193.625 138.84375 C 193.609375 138.675781 193.628906 138.511719 193.679688 138.347656 C 193.730469 138.1875 193.8125 138.039062 193.921875 137.910156 C 194.03125 137.78125 194.160156 137.675781 194.3125 137.597656 C 194.464844 137.523438 194.625 137.476562 194.792969 137.460938 C 194.964844 137.445312 195.128906 137.464844 195.289062 137.515625 C 195.453125 137.570312 195.597656 137.648438 195.730469 137.757812 Z M 195.730469 137.769531 " fill-opacity="1" fill-rule="nonzero"/><path fill="#d1d3d4" d="M 204.921875 133.320312 C 204.921875 133.320312 211.027344 136.347656 213.722656 131.835938 L 213.074219 128.433594 C 213.074219 128.433594 222.859375 132.972656 226.0625 129.570312 C 226.0625 129.570312 227.167969 131.703125 226.941406 132.378906 C 226.714844 133.054688 225.566406 134.628906 224.59375 134.316406 C 223.625 134.003906 220.378906 133.777344 219.527344 133.003906 C 218.671875 132.230469 216.566406 131.605469 216.566406 131.605469 C 216.566406 131.605469 215.945312 132.84375 215.945312 133.199219 C 215.945312 133.554688 213.929688 136.085938 213.929688 136.085938 L 210.210938 137.011719 L 208.605469 136.347656 Z M 204.921875 133.320312 " fill-opacity="1" fill-rule="nonzero"/><path fill="#d1d3d4" d="M 200.148438 115.863281 C 197.875 116.09375 197.746094 113.035156 197.746094 113.035156 C 196.433594 113.917969 195.285156 114.976562 194.304688 116.214844 C 193.324219 117.453125 192.554688 118.8125 192 120.289062 C 191.980469 120.347656 191.957031 120.398438 191.929688 120.449219 C 191.78125 122.191406 191.636719 124.035156 191.503906 125.96875 C 192.21875 124.921875 192.996094 123.921875 193.84375 122.976562 C 198.089844 118.269531 203.332031 115.894531 209.011719 116.109375 L 209.101562 116.109375 C 211.972656 116.207031 214.726562 116.816406 217.367188 117.933594 C 220.007812 119.054688 222.355469 120.613281 224.417969 122.605469 C 214.890625 110.761719 202.425781 115.648438 200.148438 115.863281 Z M 200.148438 115.863281 " fill-opacity="1" fill-rule="nonzero"/><g clip-path="url(#6991c0a239)"><path fill="#492800" d="M 226.671875 124.800781 C 230.027344 123.371094 230.324219 120.972656 230.265625 119.875 C 229.957031 114.367188 220.535156 108.644531 210.078125 107.632812 C 201.589844 106.808594 196.40625 110.035156 193.542969 112.890625 C 193.296875 113.136719 193.054688 113.390625 192.832031 113.640625 C 193.054688 111.515625 193.273438 109.644531 193.453125 108.070312 C 193.671875 106.300781 193.285156 104.675781 192.296875 103.191406 C 194.425781 96.480469 192.035156 92.054688 189.613281 89.503906 C 184.324219 83.917969 173.710938 81.953125 163.824219 84.714844 C 155.765625 86.976562 152.683594 91.917969 151.523438 95.660156 C 150.78125 98.089844 150.585938 100.558594 150.933594 103.070312 C 149.667969 104.476562 148.929688 106.121094 148.730469 108 C 144.84375 145.765625 151.210938 177.164062 155.371094 192.515625 C 156.894531 198.207031 159.414062 203.414062 162.9375 208.144531 C 177.980469 228.328125 194.378906 231.789062 195.070312 231.925781 C 195.144531 231.945312 195.222656 231.953125 195.304688 231.957031 C 195.539062 231.960938 195.765625 231.914062 195.980469 231.816406 C 196.191406 231.71875 196.375 231.582031 196.527344 231.398438 C 196.675781 231.21875 196.78125 231.015625 196.839844 230.789062 C 196.894531 230.558594 196.902344 230.332031 196.855469 230.101562 C 195.945312 226 195.269531 222.015625 194.773438 218.261719 C 194.769531 218.195312 194.761719 218.132812 194.75 218.066406 C 192.976562 204.488281 193.53125 193.90625 193.695312 191.480469 L 193.742188 190.875 C 193.867188 189.863281 193.867188 188.851562 193.742188 187.839844 C 191.613281 174.535156 190.910156 160.894531 190.953125 148.550781 C 193.175781 148.601562 194.980469 148.011719 196.371094 146.792969 C 197.523438 145.722656 198.261719 144.414062 198.585938 142.871094 C 199.421875 143.21875 200.292969 143.414062 201.199219 143.464844 C 201.984375 143.503906 202.746094 143.386719 203.480469 143.109375 C 205.914062 142.183594 207.101562 139.792969 207.652344 138.144531 C 208.539062 138.484375 209.457031 138.683594 210.40625 138.734375 C 211.253906 138.773438 212.082031 138.65625 212.886719 138.386719 C 215.257812 137.578125 216.632812 135.585938 217.363281 134.109375 C 220.234375 135.523438 222.554688 136.273438 224.375 136.335938 C 224.953125 136.367188 225.523438 136.316406 226.085938 136.179688 C 226.667969 136.042969 227.191406 135.78125 227.65625 135.402344 C 228.117188 135.019531 228.472656 134.558594 228.71875 134.011719 C 229.71875 131.824219 229.238281 128.859375 227.394531 125.871094 C 227.175781 125.511719 226.933594 125.15625 226.671875 124.800781 Z M 209.777344 110.699219 C 214.429688 111.152344 218.925781 112.578125 222.410156 114.722656 C 225.839844 116.832031 227.128906 118.917969 227.191406 120.0625 C 227.261719 121.296875 225.765625 121.980469 224.488281 122.339844 C 222.414062 120.351562 220.050781 118.804688 217.402344 117.6875 C 214.75 116.574219 211.988281 115.964844 209.117188 115.867188 L 209.023438 115.867188 C 203.265625 115.648438 197.949219 118.054688 193.65625 122.824219 C 193.003906 123.546875 192.394531 124.300781 191.824219 125.085938 C 191.9375 123.507812 192.058594 121.992188 192.179688 120.546875 C 192.203125 120.496094 192.226562 120.441406 192.242188 120.386719 C 192.390625 119.90625 196.003906 109.355469 209.777344 110.699219 Z M 151.804688 108.328125 C 151.898438 107.347656 152.222656 106.453125 152.789062 105.648438 C 153.351562 104.839844 154.074219 104.222656 154.964844 103.796875 C 160.332031 101.242188 171.707031 97.777344 187.632812 103.234375 C 188.082031 103.394531 188.496094 103.621094 188.871094 103.917969 C 189.246094 104.214844 189.558594 104.570312 189.8125 104.972656 C 190.066406 105.378906 190.246094 105.816406 190.351562 106.28125 C 190.453125 106.75 190.476562 107.21875 190.421875 107.695312 C 190.164062 109.75 189.871094 112.332031 189.574219 115.300781 C 179.457031 108.660156 169.296875 109.183594 162.34375 110.902344 C 158.421875 111.886719 154.699219 113.371094 151.183594 115.363281 C 151.34375 113.039062 151.546875 110.691406 151.789062 108.3125 Z M 164.671875 87.695312 C 173.367188 85.257812 182.929688 86.914062 187.410156 91.632812 C 189.777344 94.121094 190.566406 97.21875 189.777344 100.851562 C 189.414062 100.652344 189.035156 100.484375 188.644531 100.351562 C 171.855469 94.59375 159.699219 98.210938 153.84375 100.96875 C 153.773438 97.570312 154.875 90.421875 164.65625 87.679688 Z M 150.933594 119.097656 C 154.699219 116.703125 158.75 114.960938 163.082031 113.878906 C 172.695312 111.5 181.5 113.15625 189.242188 118.804688 C 188.578125 126.273438 187.976562 135.746094 187.882812 146.242188 C 187.832031 146.359375 187.792969 146.480469 187.773438 146.601562 C 187.726562 146.886719 187.761719 147.164062 187.871094 147.433594 C 187.808594 158.996094 188.367188 171.726562 190.117188 184.332031 C 188.445312 183.328125 186.953125 183.097656 185.59375 183.648438 C 184.023438 184.269531 183.113281 185.816406 182.566406 187.457031 C 180.929688 185.117188 178.34375 182.917969 174.625 183.707031 C 170.703125 184.539062 169.382812 188.035156 169.046875 191.269531 C 167.597656 189.835938 165.636719 188.792969 163.074219 189.261719 C 162.320312 189.382812 161.625 189.65625 160.996094 190.085938 C 160.363281 190.511719 159.851562 191.054688 159.460938 191.707031 C 159.171875 192.195312 158.957031 192.710938 158.804688 193.253906 C 158.648438 192.742188 158.496094 192.226562 158.351562 191.707031 C 154.652344 178.058594 149.167969 151.535156 150.933594 119.097656 Z M 165.394531 206.332031 C 164.21875 204.742188 163.15625 203.078125 162.210938 201.335938 C 162.320312 201.015625 162.320312 200.695312 162.210938 200.375 C 161.816406 199.136719 160.9375 195.160156 162.074219 193.261719 C 162.421875 192.675781 162.933594 192.339844 163.605469 192.253906 C 167.265625 191.585938 169.273438 197.382812 169.292969 197.4375 C 169.363281 197.609375 169.460938 197.765625 169.585938 197.902344 C 169.714844 198.039062 169.859375 198.152344 170.027344 198.234375 C 170.191406 198.320312 170.367188 198.375 170.554688 198.394531 C 170.738281 198.417969 170.921875 198.40625 171.105469 198.359375 C 171.285156 198.316406 171.453125 198.238281 171.609375 198.132812 C 171.761719 198.027344 171.894531 197.898438 172 197.746094 C 172.105469 197.59375 172.183594 197.425781 172.230469 197.246094 C 172.277344 197.066406 172.292969 196.882812 172.273438 196.699219 C 172.273438 196.609375 170.699219 187.683594 175.265625 186.714844 C 179.625 185.789062 181.863281 192.863281 181.886719 192.9375 C 182.007812 193.285156 182.230469 193.554688 182.546875 193.746094 C 182.867188 193.9375 183.207031 194.003906 183.574219 193.953125 C 183.941406 193.898438 184.25 193.734375 184.5 193.457031 C 184.746094 193.183594 184.878906 192.859375 184.898438 192.492188 C 184.898438 190.292969 185.542969 186.988281 186.757812 186.507812 C 187.355469 186.265625 188.714844 186.753906 190.785156 188.785156 C 190.808594 189.40625 190.785156 190.023438 190.722656 190.640625 C 190.703125 190.855469 190.683594 191.070312 190.671875 191.285156 C 190.507812 193.667969 189.980469 203.714844 191.53125 216.757812 C 186.019531 216.757812 182.835938 219.542969 181.359375 221.984375 C 176.421875 218.550781 170.804688 213.5625 165.40625 206.316406 Z M 183.910156 223.679688 C 184.769531 222.207031 186.96875 219.691406 191.890625 219.832031 C 192.269531 222.542969 192.738281 225.359375 193.324219 228.246094 C 190.019531 227.0625 186.886719 225.535156 183.921875 223.664062 Z M 225.90625 132.730469 C 225.792969 133 225.59375 133.160156 225.304688 133.207031 C 222.398438 133.953125 214.070312 129.101562 209.082031 125.421875 C 208.917969 125.328125 208.738281 125.261719 208.550781 125.234375 C 208.363281 125.203125 208.175781 125.207031 207.988281 125.246094 C 207.800781 125.285156 207.628906 125.355469 207.464844 125.457031 C 207.304688 125.558594 207.167969 125.6875 207.054688 125.839844 C 206.941406 125.996094 206.859375 126.164062 206.808594 126.347656 C 206.757812 126.53125 206.742188 126.71875 206.761719 126.90625 C 206.777344 127.097656 206.828125 127.277344 206.914062 127.445312 C 207 127.617188 207.113281 127.769531 207.253906 127.898438 C 209.527344 129.546875 211.878906 131.078125 214.3125 132.488281 L 214.621094 132.671875 C 214.160156 133.652344 213.285156 135.015625 211.851562 135.496094 C 209.683594 136.222656 206.960938 134.613281 205.058594 133.136719 C 204.902344 132.976562 204.71875 132.859375 204.511719 132.777344 C 204.300781 132.699219 204.085938 132.664062 203.863281 132.675781 C 203.640625 132.6875 203.429688 132.746094 203.230469 132.851562 C 203.03125 132.953125 202.867188 133.09375 202.726562 133.269531 C 202.589844 133.445312 202.496094 133.644531 202.445312 133.859375 C 202.390625 134.078125 202.386719 134.292969 202.429688 134.511719 C 202.472656 134.730469 202.558594 134.933594 202.6875 135.113281 C 202.816406 135.296875 202.976562 135.445312 203.167969 135.554688 C 203.738281 136 204.300781 136.394531 204.851562 136.746094 C 204.542969 137.921875 203.761719 139.730469 202.371094 140.253906 C 200.867188 140.816406 198.617188 139.894531 195.878906 137.589844 C 195.726562 137.425781 195.550781 137.300781 195.34375 137.210938 C 195.140625 137.125 194.925781 137.082031 194.703125 137.085938 C 194.480469 137.089844 194.265625 137.140625 194.066406 137.238281 C 193.863281 137.332031 193.691406 137.464844 193.546875 137.636719 C 193.402344 137.808594 193.300781 138 193.238281 138.214844 C 193.179688 138.429688 193.164062 138.644531 193.199219 138.867188 C 193.234375 139.085938 193.308594 139.289062 193.433594 139.476562 C 193.554688 139.664062 193.707031 139.816406 193.898438 139.9375 C 194.515625 140.460938 195.136719 140.917969 195.714844 141.324219 C 195.644531 142.082031 195.375 143.566406 194.289062 144.519531 C 193.507812 145.203125 192.386719 145.53125 190.949219 145.488281 C 191.003906 140.652344 191.167969 136.035156 191.394531 131.75 C 191.542969 131.601562 191.65625 131.433594 191.734375 131.242188 C 191.789062 131.113281 197.164062 118.480469 208.890625 118.925781 L 208.972656 118.925781 C 216.925781 119.257812 222.441406 123.734375 224.753906 127.484375 C 226.027344 129.507812 226.46875 131.519531 225.914062 132.722656 Z M 225.90625 132.730469 " fill-opacity="1" fill-rule="nonzero"/></g><path fill="#492800" d="M 175.390625 145.929688 C 177.921875 145.828125 179.8125 141.890625 179.613281 137.144531 C 179.578125 136.164062 179.445312 135.195312 179.222656 134.238281 C 179.277344 134.226562 179.328125 134.210938 179.378906 134.1875 C 181.589844 133.226562 181.773438 130.785156 181.773438 130.785156 C 180.53125 132.363281 178.40625 131.859375 178.40625 131.859375 C 181.429688 131.339844 182.652344 126.144531 182.652344 126.144531 C 180.480469 129.003906 177.382812 129.109375 175.746094 128.925781 C 175.402344 128.789062 175.046875 128.726562 174.675781 128.738281 C 172.144531 128.839844 170.25 132.773438 170.449219 137.523438 C 170.648438 142.273438 172.859375 146.035156 175.390625 145.929688 Z M 175.390625 145.929688 " fill-opacity="1" fill-rule="nonzero"/><path fill="#492800" d="M 161.488281 146.507812 C 164.019531 146.402344 165.914062 142.46875 165.714844 137.71875 C 165.515625 132.96875 163.304688 129.207031 160.777344 129.3125 C 160.722656 129.308594 160.671875 129.308594 160.617188 129.3125 L 160.59375 129.3125 C 160.324219 129.34375 160.0625 129.417969 159.816406 129.53125 C 158.304688 129.871094 154.976562 130.191406 152.457031 127.363281 C 152.457031 127.363281 154.101562 132.445312 157.160156 132.710938 C 157.160156 132.710938 155.101562 133.386719 153.71875 131.917969 C 153.71875 131.917969 154.105469 134.339844 156.386719 135.113281 C 156.488281 135.148438 156.589844 135.167969 156.695312 135.171875 C 156.554688 136.136719 156.507812 137.101562 156.550781 138.074219 C 156.746094 142.847656 158.960938 146.609375 161.488281 146.507812 Z M 161.488281 146.507812 " fill-opacity="1" fill-rule="nonzero"/><path fill="#492800" d="M 164.402344 148.835938 C 164.15625 148.828125 163.941406 148.90625 163.761719 149.074219 C 163.578125 149.238281 163.484375 149.445312 163.472656 149.691406 C 163.449219 149.980469 163.453125 150.265625 163.488281 150.554688 C 163.519531 150.839844 163.582031 151.117188 163.671875 151.390625 C 163.765625 151.667969 163.882812 151.929688 164.023438 152.179688 C 164.167969 152.429688 164.335938 152.660156 164.527344 152.878906 C 164.714844 153.09375 164.925781 153.289062 165.15625 153.460938 C 165.386719 153.636719 165.632812 153.785156 165.894531 153.910156 C 166.15625 154.03125 166.425781 154.128906 166.707031 154.199219 C 166.984375 154.269531 167.269531 154.308594 167.558594 154.320312 C 167.847656 154.332031 168.132812 154.316406 168.417969 154.269531 C 168.703125 154.222656 168.980469 154.152344 169.25 154.046875 C 169.519531 153.945312 169.777344 153.820312 170.023438 153.664062 C 170.265625 153.511719 170.492188 153.335938 170.699219 153.132812 C 170.910156 152.933594 171.09375 152.714844 171.257812 152.480469 C 171.421875 152.242188 171.5625 151.992188 171.675781 151.726562 C 171.789062 151.460938 171.871094 151.1875 171.929688 150.90625 C 171.988281 150.621094 172.015625 150.335938 172.015625 150.050781 C 172.015625 149.808594 171.929688 149.601562 171.765625 149.429688 C 171.597656 149.253906 171.394531 149.164062 171.152344 149.152344 C 170.914062 149.144531 170.703125 149.21875 170.519531 149.375 C 170.339844 149.535156 170.238281 149.734375 170.21875 149.976562 C 170.207031 150.304688 170.128906 150.617188 169.992188 150.914062 C 169.851562 151.210938 169.664062 151.472656 169.421875 151.695312 C 169.179688 151.917969 168.902344 152.085938 168.59375 152.195312 C 168.285156 152.308594 167.964844 152.359375 167.636719 152.347656 C 167.308594 152.332031 166.992188 152.257812 166.695312 152.117188 C 166.394531 151.980469 166.136719 151.789062 165.914062 151.546875 C 165.691406 151.304688 165.523438 151.03125 165.410156 150.722656 C 165.296875 150.414062 165.246094 150.09375 165.257812 149.765625 C 165.269531 149.519531 165.191406 149.308594 165.023438 149.125 C 164.859375 148.945312 164.652344 148.847656 164.402344 148.835938 Z M 164.402344 148.835938 " fill-opacity="1" fill-rule="nonzero"/><path fill="#ffffff" d="M 177.730469 132.222656 C 177.742188 132.519531 177.707031 132.808594 177.625 133.085938 C 177.542969 133.363281 177.421875 133.613281 177.257812 133.828125 C 177.09375 134.046875 176.902344 134.21875 176.679688 134.339844 C 176.460938 134.464844 176.230469 134.53125 175.984375 134.542969 C 175.742188 134.550781 175.503906 134.503906 175.273438 134.398438 C 175.046875 134.292969 174.839844 134.140625 174.660156 133.9375 C 174.476562 133.734375 174.335938 133.496094 174.230469 133.226562 C 174.125 132.957031 174.066406 132.671875 174.054688 132.375 C 174.042969 132.074219 174.078125 131.789062 174.160156 131.507812 C 174.242188 131.230469 174.363281 130.980469 174.527344 130.765625 C 174.691406 130.546875 174.882812 130.375 175.101562 130.253906 C 175.324219 130.128906 175.554688 130.0625 175.796875 130.054688 C 176.042969 130.042969 176.277344 130.089844 176.507812 130.195312 C 176.738281 130.300781 176.945312 130.453125 177.125 130.65625 C 177.304688 130.859375 177.449219 131.097656 177.554688 131.367188 C 177.65625 131.640625 177.714844 131.921875 177.730469 132.222656 Z M 177.730469 132.222656 " fill-opacity="1" fill-rule="nonzero"/><path fill="#ffffff" d="M 175.121094 135.476562 C 175.128906 135.625 175.109375 135.765625 175.070312 135.902344 C 175.03125 136.039062 174.96875 136.164062 174.890625 136.269531 C 174.808594 136.375 174.714844 136.460938 174.605469 136.519531 C 174.496094 136.582031 174.382812 136.613281 174.261719 136.621094 C 174.144531 136.625 174.027344 136.601562 173.914062 136.550781 C 173.800781 136.5 173.699219 136.421875 173.609375 136.324219 C 173.519531 136.222656 173.449219 136.105469 173.398438 135.972656 C 173.347656 135.839844 173.320312 135.699219 173.3125 135.554688 C 173.304688 135.40625 173.324219 135.265625 173.363281 135.128906 C 173.402344 134.992188 173.464844 134.871094 173.542969 134.761719 C 173.625 134.65625 173.71875 134.570312 173.828125 134.511719 C 173.9375 134.449219 174.050781 134.417969 174.171875 134.414062 C 174.289062 134.40625 174.40625 134.429688 174.519531 134.480469 C 174.632812 134.535156 174.734375 134.609375 174.824219 134.710938 C 174.914062 134.808594 174.984375 134.925781 175.035156 135.058594 C 175.085938 135.191406 175.117188 135.332031 175.121094 135.476562 Z M 175.121094 135.476562 " fill-opacity="1" fill-rule="nonzero"/><path fill="#ffffff" d="M 163.824219 132.796875 C 163.839844 133.09375 163.804688 133.382812 163.722656 133.660156 C 163.640625 133.941406 163.519531 134.1875 163.355469 134.40625 C 163.191406 134.621094 163 134.792969 162.777344 134.917969 C 162.558594 135.039062 162.328125 135.105469 162.082031 135.117188 C 161.839844 135.125 161.601562 135.078125 161.371094 134.976562 C 161.144531 134.871094 160.9375 134.714844 160.757812 134.511719 C 160.574219 134.308594 160.433594 134.074219 160.328125 133.800781 C 160.222656 133.53125 160.164062 133.246094 160.152344 132.949219 C 160.140625 132.652344 160.175781 132.363281 160.257812 132.085938 C 160.339844 131.804688 160.460938 131.558594 160.625 131.339844 C 160.789062 131.121094 160.980469 130.953125 161.199219 130.828125 C 161.421875 130.707031 161.652344 130.640625 161.894531 130.628906 C 162.140625 130.617188 162.375 130.664062 162.605469 130.769531 C 162.835938 130.875 163.042969 131.027344 163.222656 131.230469 C 163.402344 131.433594 163.546875 131.671875 163.652344 131.945312 C 163.753906 132.214844 163.8125 132.5 163.824219 132.796875 Z M 163.824219 132.796875 " fill-opacity="1" fill-rule="nonzero"/><path fill="#ffffff" d="M 161.222656 136.058594 C 161.226562 136.203125 161.210938 136.34375 161.171875 136.480469 C 161.128906 136.621094 161.070312 136.742188 160.988281 136.847656 C 160.910156 136.957031 160.8125 137.039062 160.707031 137.097656 C 160.597656 137.160156 160.484375 137.191406 160.363281 137.199219 C 160.242188 137.203125 160.125 137.179688 160.011719 137.128906 C 159.902344 137.078125 159.800781 137 159.710938 136.902344 C 159.621094 136.800781 159.550781 136.683594 159.5 136.550781 C 159.449219 136.417969 159.417969 136.277344 159.414062 136.132812 C 159.40625 135.984375 159.421875 135.84375 159.464844 135.707031 C 159.503906 135.570312 159.566406 135.449219 159.644531 135.339844 C 159.726562 135.234375 159.820312 135.148438 159.929688 135.089844 C 160.039062 135.027344 160.152344 134.996094 160.269531 134.992188 C 160.390625 134.984375 160.507812 135.007812 160.621094 135.0625 C 160.734375 135.113281 160.835938 135.1875 160.925781 135.289062 C 161.011719 135.386719 161.082031 135.503906 161.136719 135.636719 C 161.1875 135.769531 161.214844 135.910156 161.222656 136.058594 Z M 161.222656 136.058594 " fill-opacity="1" fill-rule="nonzero"/><path fill="#e8525d" d="M 181.160156 148.117188 C 181.164062 148.261719 181.0625 148.402344 180.863281 148.535156 C 180.660156 148.671875 180.371094 148.789062 180 148.894531 C 179.625 149 179.195312 149.082031 178.707031 149.140625 C 178.21875 149.203125 177.707031 149.234375 177.179688 149.238281 C 176.648438 149.246094 176.140625 149.222656 175.648438 149.171875 C 175.160156 149.121094 174.726562 149.046875 174.351562 148.949219 C 173.976562 148.851562 173.6875 148.738281 173.484375 148.605469 C 173.28125 148.476562 173.175781 148.339844 173.175781 148.195312 C 173.175781 148.050781 173.273438 147.910156 173.476562 147.777344 C 173.675781 147.644531 173.964844 147.523438 174.335938 147.417969 C 174.710938 147.3125 175.140625 147.230469 175.632812 147.171875 C 176.121094 147.109375 176.628906 147.078125 177.15625 147.074219 C 177.6875 147.070312 178.195312 147.089844 178.6875 147.140625 C 179.175781 147.191406 179.609375 147.265625 179.984375 147.363281 C 180.359375 147.460938 180.648438 147.574219 180.851562 147.707031 C 181.058594 147.835938 181.160156 147.976562 181.160156 148.117188 Z M 181.160156 148.117188 " fill-opacity="1" fill-rule="nonzero"/><path fill="#e8525d" d="M 161.234375 148.847656 C 161.234375 148.992188 161.132812 149.128906 160.929688 149.261719 C 160.726562 149.394531 160.4375 149.511719 160.0625 149.613281 C 159.6875 149.714844 159.257812 149.792969 158.765625 149.847656 C 158.277344 149.902344 157.769531 149.929688 157.238281 149.929688 C 156.710938 149.929688 156.199219 149.902344 155.710938 149.847656 C 155.222656 149.792969 154.789062 149.714844 154.414062 149.613281 C 154.042969 149.511719 153.753906 149.394531 153.550781 149.261719 C 153.347656 149.128906 153.246094 148.992188 153.246094 148.847656 C 153.246094 148.703125 153.347656 148.566406 153.550781 148.433594 C 153.753906 148.300781 154.042969 148.183594 154.414062 148.082031 C 154.789062 147.980469 155.222656 147.902344 155.710938 147.847656 C 156.199219 147.792969 156.710938 147.765625 157.238281 147.765625 C 157.769531 147.765625 158.277344 147.792969 158.765625 147.847656 C 159.257812 147.902344 159.6875 147.980469 160.0625 148.082031 C 160.4375 148.183594 160.726562 148.300781 160.929688 148.433594 C 161.132812 148.566406 161.234375 148.703125 161.234375 148.847656 Z M 161.234375 148.847656 " fill-opacity="1" fill-rule="nonzero"/></svg>